# xmcd
#
# Track frame offsets:
#	150
#	8606
#	19978
#	29492
#	38584
#	52028
#	62996
#	79073
#	90371
#	99070
#	108876
#	119133
#	130432
#	140632
#
# Disc length: 2102 seconds
#
# Revision: 1
# Processed by: cddbd v1.5.2PL0 Copyright (c) Steve Scherf et al.
# Submitted via: EZCDAudioConverter 7.0.6.1
#
DISCID=b608340e
DTITLE=Rolling Stones - On Air 2/2
DYEAR=2017
DGENRE=
TTITLE0=I Wanna Be Your Man
TTITLE1=Carol
TTITLE2=I'm Moving On
TTITLE3=If You Need Me
TTITLE4=Walking The Dog
TTITLE5=Confessin' The Blues
TTITLE6=Everybody Needs Somebody To Love
TTITLE7=Little By Little
TTITLE8=Ain't That Loving You Baby
TTITLE9=Beautiful Delilah
TTITLE10=Crackin' Up
TTITLE11=I Can't Be Satisfied
TTITLE12=I Just Want To Make Love To You
TTITLE13=2120 South Michigan Avenue
EXTD=
EXTT0=
EXTT1=
EXTT2=
EXTT3=
EXTT4=
EXTT5=
EXTT6=
EXTT7=
EXTT8=
EXTT9=
EXTT10=
EXTT11=
EXTT12=
EXTT13=
PLAYORDER=
